<svg width="148" height="148" xmlns="http://www.w3.org/2000/svg" xmlns:xlink="http://www.w3.org/1999/xlink" xml:space="preserve" overflow="hidden"><defs><clipPath id="clip0"><rect x="78" y="496" width="148" height="148"/></clipPath></defs><g clip-path="url(#clip0)" transform="translate(-78 -496)"><path d="M77.9999 496.001 226 496.001 226 644.001 77.9999 644.001Z" fill="#FFFFFF"/><path d="M205.6 628.001 202.4 628.001C202.179 628.001 202 627.822 202 627.601L202 620.001 206 620.001 206 627.601C206 627.822 205.821 628.001 205.6 628.001ZM197.6 628.001 190.4 628.001C190.179 628.001 190 627.822 190 627.601L190 616.401C190 616.18 189.821 616.001 189.6 616.001L182.4 616.001C182.179 616.001 182 615.822 182 615.601L182 612.401C182 612.18 181.821 612.001 181.6 612.001L174.4 612.001C174.179 612.001 174 611.822 174 611.601L174 592.001 177.6 592.001C177.821 592.001 178 591.822 178 591.601L178 588.401C178 588.18 178.179 588.001 178.4 588.001L189.6 588.001C189.821 588.001 190 587.822 190 587.601L190 584.001 194 584.001 194 603.601C194 603.822 194.179 604.001 194.4 604.001L201.6 604.001C201.821 604.001 202 603.822 202 603.601L202 600.401C202 600.18 201.821 600.001 201.6 600.001L198.4 600.001C198.179 600.001 198 599.822 198 599.601L198 592.401C198 592.18 198.179 592.001 198.4 592.001L202 592.001 202 595.601C202 595.822 202.179 596.001 202.4 596.001L209.6 596.001C209.821 596.001 210 596.18 210 596.401L210 599.601C210 599.822 209.821 600.001 209.6 600.001L206.4 600.001C206.179 600.001 206 600.18 206 600.401L206 608.001 194.4 608.001C194.179 608.001 194 608.18 194 608.401L194 611.601C194 611.822 194.179 612.001 194.4 612.001L201.6 612.001C201.821 612.001 202 612.18 202 612.401L202 620.001 194.4 620.001C194.179 620.001 194 620.18 194 620.401L194 623.601C194 623.822 194.179 624.001 194.4 624.001L197.6 624.001C197.821 624.001 198 624.18 198 624.401L198 627.601C198 627.822 197.821 628.001 197.6 628.001ZM181.6 628.001 174.4 628.001C174.179 628.001 174 627.822 174 627.601L174 620.001 181.6 620.001C181.821 620.001 182 620.18 182 620.401L182 627.601C182 627.822 181.821 628.001 181.6 628.001ZM165.6 628.001 162.4 628.001C162.179 628.001 162 627.822 162 627.601L162 620.001 166 620.001 166 627.601C166 627.822 165.821 628.001 165.6 628.001ZM149.6 628.001 142.4 628.001C142.179 628.001 142 627.822 142 627.601L142 624.401C142 624.18 142.179 624.001 142.4 624.001L145.6 624.001C145.821 624.001 146 623.822 146 623.601L146 620.401C146 620.18 146.179 620.001 146.4 620.001L150 620.001 150 627.601C150 627.822 149.821 628.001 149.6 628.001ZM137.6 628.001 126.4 628.001C126.179 628.001 126 627.822 126 627.601L126 620.401C126 620.18 126.179 620.001 126.4 620.001L129.6 620.001C129.821 620.001 130 619.822 130 619.601L130 616.001 134 616.001 134 623.601C134 623.822 134.179 624.001 134.4 624.001L137.6 624.001C137.821 624.001 138 624.18 138 624.401L138 627.601C138 627.822 137.821 628.001 137.6 628.001ZM121.6 628.001 94.3999 628.001C94.179 628.001 93.9999 627.822 93.9999 627.601L93.9999 600.401C93.9999 600.18 94.179 600.001 94.3999 600.001L121.6 600.001C121.821 600.001 122 600.18 122 600.401L122 627.601C122 627.822 121.821 628.001 121.6 628.001ZM118 623.601 118 604.401C118 604.18 117.821 604.001 117.6 604.001L98.3999 604.001C98.179 604.001 97.9999 604.18 97.9999 604.401L97.9999 623.601C97.9999 623.822 98.179 624.001 98.3999 624.001L117.6 624.001C117.821 624.001 118 623.822 118 623.601ZM209.6 620.001 206 620.001 206 616.401C206 616.18 206.179 616.001 206.4 616.001L209.6 616.001C209.821 616.001 210 616.18 210 616.401L210 619.601C210 619.822 209.821 620.001 209.6 620.001ZM173.6 620.001 166 620.001 166 612.401C166 612.18 166.179 612.001 166.4 612.001L169.6 612.001C169.821 612.001 170 612.18 170 612.401L170 615.601C170 615.822 170.179 616.001 170.4 616.001L173.6 616.001C173.821 616.001 174 616.18 174 616.401L174 620.001ZM161.6 620.001 158.4 620.001C158.179 620.001 158 619.822 158 619.601L158 616.401C158 616.18 158.179 616.001 158.4 616.001L161.6 616.001C161.821 616.001 162 616.18 162 616.401L162 620.001ZM153.6 620.001 150 620.001 150 612.401C150 612.18 149.821 612.001 149.6 612.001L146 612.001 146 604.401C146 604.18 145.821 604.001 145.6 604.001L142.4 604.001C142.179 604.001 142 603.822 142 603.601L142 600.401C142 600.18 142.179 600.001 142.4 600.001L145.6 600.001C145.821 600.001 146 599.822 146 599.601L146 592.001 149.6 592.001C149.821 592.001 150 592.18 150 592.401L150 595.601C150 595.822 150.179 596.001 150.4 596.001L153.6 596.001C153.821 596.001 154 595.822 154 595.601L154 588.401C154 588.18 154.179 588.001 154.4 588.001L161.6 588.001C161.821 588.001 162 587.822 162 587.601L162 584.001 165.6 584.001C165.821 584.001 166 584.18 166 584.401L166 587.601C166 587.822 166.179 588.001 166.4 588.001L173.6 588.001C173.821 588.001 174 588.18 174 588.401L174 592.001 162.4 592.001C162.179 592.001 162 592.18 162 592.401L162 595.601C162 595.822 162.179 596.001 162.4 596.001L169.6 596.001C169.821 596.001 170 596.18 170 596.401L170 603.601C170 603.822 169.821 604.001 169.6 604.001L162.4 604.001C162.179 604.001 162 604.18 162 604.401L162 611.601C162 611.822 161.821 612.001 161.6 612.001L154.4 612.001C154.179 612.001 154 612.18 154 612.401L154 619.601C154 619.822 153.821 620.001 153.6 620.001ZM141.6 620.001 138.4 620.001C138.179 620.001 138 619.822 138 619.601L138 616.401C138 616.18 137.821 616.001 137.6 616.001L134 616.001 134 612.001 137.6 612.001C137.821 612.001 138 611.822 138 611.601L138 608.401C138 608.18 138.179 608.001 138.4 608.001L141.6 608.001C141.821 608.001 142 608.18 142 608.401L142 611.601C142 611.822 142.179 612.001 142.4 612.001L146 612.001 146 615.601C146 615.822 145.821 616.001 145.6 616.001L142.4 616.001C142.179 616.001 142 616.18 142 616.401L142 619.601C142 619.822 141.821 620.001 141.6 620.001ZM113.6 620.001 102.4 620.001C102.179 620.001 102 619.822 102 619.601L102 608.401C102 608.18 102.179 608.001 102.4 608.001L113.6 608.001C113.821 608.001 114 608.18 114 608.401L114 619.601C114 619.822 113.821 620.001 113.6 620.001ZM129.6 616.001 126.4 616.001C126.179 616.001 126 615.822 126 615.601L126 612.401C126 612.18 126.179 612.001 126.4 612.001L130 612.001 130 616.001ZM209.6 612.001 206.4 612.001C206.179 612.001 206 611.822 206 611.601L206 608.001 209.6 608.001C209.821 608.001 210 608.18 210 608.401L210 611.601C210 611.822 209.821 612.001 209.6 612.001ZM133.6 612.001 130 612.001 130 608.401C130 608.18 130.179 608.001 130.4 608.001L133.6 608.001C133.821 608.001 134 608.18 134 608.401L134 612.001ZM190 607.601 190 596.401C190 596.18 189.821 596.001 189.6 596.001L178.4 596.001C178.179 596.001 178 596.18 178 596.401L178 607.601C178 607.822 178.179 608.001 178.4 608.001L189.6 608.001C189.821 608.001 190 607.822 190 607.601ZM154 607.601 154 604.001 157.6 604.001C157.821 604.001 158 603.822 158 603.601L158 600.401C158 600.18 157.821 600.001 157.6 600.001L154.4 600.001C154.179 600.001 154 600.18 154 600.401L154 604.001 150.4 604.001C150.179 604.001 150 604.18 150 604.401L150 607.601C150 607.822 150.179 608.001 150.4 608.001L153.6 608.001C153.821 608.001 154 607.822 154 607.601ZM185.6 604.001 182.4 604.001C182.179 604.001 182 603.822 182 603.601L182 600.401C182 600.18 182.179 600.001 182.4 600.001L185.6 600.001C185.821 600.001 186 600.18 186 600.401L186 603.601C186 603.822 185.821 604.001 185.6 604.001ZM137.6 604.001 134.4 604.001C134.179 604.001 134 603.822 134 603.601L134 600.401C134 600.18 134.179 600.001 134.4 600.001L137.6 600.001C137.821 600.001 138 600.18 138 600.401L138 603.601C138 603.822 137.821 604.001 137.6 604.001ZM129.6 604.001 126.4 604.001C126.179 604.001 126 603.822 126 603.601L126 588.401C126 588.18 126.179 588.001 126.4 588.001L130 588.001 130 603.601C130 603.822 129.821 604.001 129.6 604.001ZM141.6 596.001 134.4 596.001C134.179 596.001 134 595.822 134 595.601L134 592.401C134 592.18 134.179 592.001 134.4 592.001L142 592.001 142 595.601C142 595.822 141.821 596.001 141.6 596.001ZM121.6 596.001 114.4 596.001C114.179 596.001 114 595.822 114 595.601L114 588.001 118 588.001 118 591.601C118 591.822 118.179 592.001 118.4 592.001L121.6 592.001C121.821 592.001 122 592.18 122 592.401L122 595.601C122 595.822 121.821 596.001 121.6 596.001ZM109.6 596.001 102.4 596.001C102.179 596.001 102 595.822 102 595.601L102 584.401C102 584.18 102.179 584.001 102.4 584.001L105.6 584.001C105.821 584.001 106 584.18 106 584.401L106 591.601C106 591.822 106.179 592.001 106.4 592.001L109.6 592.001C109.821 592.001 110 592.18 110 592.401L110 595.601C110 595.822 109.821 596.001 109.6 596.001ZM97.5999 596.001 94.3999 596.001C94.179 596.001 93.9999 595.822 93.9999 595.601L93.9999 592.401C93.9999 592.18 94.179 592.001 94.3999 592.001L97.5999 592.001C97.8208 592.001 97.9999 592.18 97.9999 592.401L97.9999 595.601C97.9999 595.822 97.8208 596.001 97.5999 596.001ZM209.6 592.001 202 592.001 202 584.401C202 584.18 202.179 584.001 202.4 584.001L205.6 584.001C205.821 584.001 206 583.822 206 583.601L206 580.001 209.6 580.001C209.821 580.001 210 580.18 210 580.401L210 591.601C210 591.822 209.821 592.001 209.6 592.001ZM145.6 592.001 142 592.001 142 584.401C142 584.18 141.821 584.001 141.6 584.001L134 584.001 134 580.401C134 580.18 134.179 580.001 134.4 580.001L137.6 580.001C137.821 580.001 138 579.822 138 579.601L138 576.401C138 576.18 138.179 576.001 138.4 576.001L141.6 576.001C141.821 576.001 142 575.822 142 575.601L142 572.001 145.6 572.001C145.821 572.001 146 571.822 146 571.601L146 568.001 150 568.001 150 575.601C150 575.822 149.821 576.001 149.6 576.001L146.4 576.001C146.179 576.001 146 576.18 146 576.401L146 592.001ZM133.6 588.001 130 588.001 130 584.401C130 584.18 130.179 584.001 130.4 584.001L134 584.001 134 587.601C134 587.822 133.821 588.001 133.6 588.001ZM121.6 588.001 118 588.001 118 584.001 121.6 584.001C121.821 584.001 122 584.18 122 584.401L122 587.601C122 587.822 121.821 588.001 121.6 588.001ZM113.6 588.001 110.4 588.001C110.179 588.001 110 587.822 110 587.601L110 580.401C110 580.18 109.821 580.001 109.6 580.001L106.4 580.001C106.179 580.001 106 579.822 106 579.601L106 572.401C106 572.18 105.821 572.001 105.6 572.001L97.9999 572.001 97.9999 568.001 101.6 568.001C101.821 568.001 102 567.822 102 567.601L102 564.401C102 564.18 102.179 564.001 102.4 564.001L105.6 564.001C105.821 564.001 106 564.18 106 564.401L106 567.601C106 567.822 106.179 568.001 106.4 568.001L109.6 568.001C109.821 568.001 110 567.822 110 567.601L110 564.401C110 564.18 110.179 564.001 110.4 564.001L114 564.001 114 567.601C114 567.822 114.179 568.001 114.4 568.001L125.6 568.001C125.821 568.001 126 568.18 126 568.401L126 572.001 114.4 572.001C114.179 572.001 114 572.18 114 572.401L114 575.601C114 575.822 114.179 576.001 114.4 576.001L126 576.001 126 579.601C126 579.822 125.821 580.001 125.6 580.001L118.4 580.001C118.179 580.001 118 580.18 118 580.401L118 584.001 114.4 584.001C114.179 584.001 114 584.18 114 584.401L114 588.001ZM97.5999 588.001 94.3999 588.001C94.179 588.001 93.9999 587.822 93.9999 587.601L93.9999 584.401C93.9999 584.18 94.179 584.001 94.3999 584.001L97.5999 584.001C97.8208 584.001 97.9999 584.18 97.9999 584.401L97.9999 587.601C97.9999 587.822 97.8208 588.001 97.5999 588.001ZM197.6 584.001 194 584.001 194 580.401C194 580.18 194.179 580.001 194.4 580.001L197.6 580.001C197.821 580.001 198 580.18 198 580.401L198 583.601C198 583.822 197.821 584.001 197.6 584.001ZM189.6 584.001 178.4 584.001C178.179 584.001 178 583.822 178 583.601L178 580.401C178 580.18 177.821 580.001 177.6 580.001L170.4 580.001C170.179 580.001 170 579.822 170 579.601L170 576.401C170 576.18 169.821 576.001 169.6 576.001L162 576.001 162 572.001 174 572.001 174 575.601C174 575.822 174.179 576.001 174.4 576.001L182 576.001 182 579.601C182 579.822 182.179 580.001 182.4 580.001L189.6 580.001C189.821 580.001 190 580.18 190 580.401L190 584.001ZM161.6 584.001 150.4 584.001C150.179 584.001 150 583.822 150 583.601L150 580.401C150 580.18 150.179 580.001 150.4 580.001L157.6 580.001C157.821 580.001 158 579.822 158 579.601L158 576.001 162 576.001 162 584.001ZM205.6 580.001 202.4 580.001C202.179 580.001 202 579.822 202 579.601L202 572.401C202 572.18 201.821 572.001 201.6 572.001L198.4 572.001C198.179 572.001 198 572.18 198 572.401L198 575.601C198 575.822 197.821 576.001 197.6 576.001L194.4 576.001C194.179 576.001 194 575.822 194 575.601L194 572.401C194 572.18 193.821 572.001 193.6 572.001L190 572.001 190 568.401C190 568.18 190.179 568.001 190.4 568.001L209.6 568.001C209.821 568.001 210 568.18 210 568.401L210 571.601C210 571.822 209.821 572.001 209.6 572.001L206.4 572.001C206.179 572.001 206 572.18 206 572.401L206 580.001ZM189.6 576.001 182 576.001 182 572.401C182 572.18 181.821 572.001 181.6 572.001L174 572.001 174 568.401C174 568.18 173.821 568.001 173.6 568.001L170.4 568.001C170.179 568.001 170 567.822 170 567.601L170 564.001 178 564.001 178 567.601C178 567.822 178.179 568.001 178.4 568.001L185.6 568.001C185.821 568.001 186 568.18 186 568.401L186 571.601C186 571.822 186.179 572.001 186.4 572.001L190 572.001 190 575.601C190 575.822 189.821 576.001 189.6 576.001ZM157.6 576.001 154.4 576.001C154.179 576.001 154 575.822 154 575.601L154 572.401C154 572.18 154.179 572.001 154.4 572.001L158 572.001 158 576.001ZM133.6 576.001 126 576.001 126 572.001 129.6 572.001C129.821 572.001 130 571.822 130 571.601L130 564.001 137.6 564.001C137.821 564.001 138 563.822 138 563.601L138 560.401C138 560.18 138.179 560.001 138.4 560.001L141.6 560.001C141.821 560.001 142 559.822 142 559.601L142 552.001 145.6 552.001C145.821 552.001 146 551.822 146 551.601L146 548.001 149.6 548.001C149.821 548.001 150 547.822 150 547.601L150 532.001 153.6 532.001C153.821 532.001 154 531.822 154 531.601L154 528.401C154 528.18 154.179 528.001 154.4 528.001L165.6 528.001C165.821 528.001 166 527.822 166 527.601L166 524.001 170 524.001 170 531.601C170 531.822 170.179 532.001 170.4 532.001L173.6 532.001C173.821 532.001 174 531.822 174 531.601L174 528.401C174 528.18 174.179 528.001 174.4 528.001L177.6 528.001C177.821 528.001 178 528.18 178 528.401L178 539.601C178 539.822 177.821 540.001 177.6 540.001L174.4 540.001C174.179 540.001 174 539.822 174 539.601L174 536.401C174 536.18 173.821 536.001 173.6 536.001L170.4 536.001C170.179 536.001 170 536.18 170 536.401L170 543.601C170 543.822 169.821 544.001 169.6 544.001L162 544.001 162 540.001 165.6 540.001C165.821 540.001 166 539.822 166 539.601L166 536.401C166 536.18 165.821 536.001 165.6 536.001L162.4 536.001C162.179 536.001 162 536.18 162 536.401L162 540.001 158.4 540.001C158.179 540.001 158 539.822 158 539.601L158 536.401C158 536.18 157.821 536.001 157.6 536.001L154.4 536.001C154.179 536.001 154 536.18 154 536.401L154 551.601C154 551.822 153.821 552.001 153.6 552.001L150.4 552.001C150.179 552.001 150 552.18 150 552.401L150 555.601C150 555.822 150.179 556.001 150.4 556.001L161.6 556.001C161.821 556.001 162 556.18 162 556.401L162 559.601C162 559.822 162.179 560.001 162.4 560.001L165.6 560.001C165.821 560.001 166 559.822 166 559.601L166 556.401C166 556.18 166.179 556.001 166.4 556.001L169.6 556.001C169.821 556.001 170 555.822 170 555.601L170 552.401C170 552.18 170.179 552.001 170.4 552.001L173.6 552.001C173.821 552.001 174 551.822 174 551.601L174 544.401C174 544.18 174.179 544.001 174.4 544.001L177.6 544.001C177.821 544.001 178 544.18 178 544.401L178 547.601C178 547.822 178.179 548.001 178.4 548.001L181.6 548.001C181.821 548.001 182 547.822 182 547.601L182 544.401C182 544.18 182.179 544.001 182.4 544.001L193.6 544.001C193.821 544.001 194 544.18 194 544.401L194 548.001 190.4 548.001C190.179 548.001 190 548.18 190 548.401L190 552.001 186.4 552.001C186.179 552.001 186 552.18 186 552.401L186 555.601C186 555.822 186.179 556.001 186.4 556.001L190 556.001 190 563.601C190 563.822 189.821 564.001 189.6 564.001L178 564.001 178 560.401C178 560.18 177.821 560.001 177.6 560.001L170.4 560.001C170.179 560.001 170 560.18 170 560.401L170 564.001 158.4 564.001C158.179 564.001 158 563.822 158 563.601L158 560.401C158 560.18 157.821 560.001 157.6 560.001L150.4 560.001C150.179 560.001 150 560.18 150 560.401L150 564.001 146.4 564.001C146.179 564.001 146 564.18 146 564.401L146 568.001 142.4 568.001C142.179 568.001 142 568.18 142 568.401L142 572.001 138.4 572.001C138.179 572.001 138 571.822 138 571.601L138 568.401C138 568.18 137.821 568.001 137.6 568.001L134.4 568.001C134.179 568.001 134 568.18 134 568.401L134 575.601C134 575.822 133.821 576.001 133.6 576.001ZM97.5999 576.001 94.3999 576.001C94.179 576.001 93.9999 575.822 93.9999 575.601L93.9999 572.401C93.9999 572.18 94.179 572.001 94.3999 572.001L97.9999 572.001 97.9999 575.601C97.9999 575.822 97.8208 576.001 97.5999 576.001ZM161.6 572.001 158 572.001 158 568.401C158 568.18 158.179 568.001 158.4 568.001L161.6 568.001C161.821 568.001 162 568.18 162 568.401L162 572.001ZM153.6 568.001 150 568.001 150 564.001 153.6 564.001C153.821 564.001 154 564.18 154 564.401L154 567.601C154 567.822 153.821 568.001 153.6 568.001ZM97.5999 568.001 94.3999 568.001C94.179 568.001 93.9999 567.822 93.9999 567.601L93.9999 560.401C93.9999 560.18 94.179 560.001 94.3999 560.001L97.9999 560.001 97.9999 568.001ZM209.6 564.001 202.4 564.001C202.179 564.001 202 563.822 202 563.601L202 560.401C202 560.18 201.821 560.001 201.6 560.001L198 560.001 198 556.401C198 556.18 197.821 556.001 197.6 556.001L190 556.001 190 552.001 193.6 552.001C193.821 552.001 194 551.822 194 551.601L194 548.001 198 548.001 198 551.601C198 551.822 198.179 552.001 198.4 552.001L206 552.001 206 559.601C206 559.822 206.179 560.001 206.4 560.001L209.6 560.001C209.821 560.001 210 560.18 210 560.401L210 563.601C210 563.822 209.821 564.001 209.6 564.001ZM197.6 564.001 194.4 564.001C194.179 564.001 194 563.822 194 563.601L194 560.401C194 560.18 194.179 560.001 194.4 560.001L198 560.001 198 563.601C198 563.822 197.821 564.001 197.6 564.001ZM129.6 564.001 126.4 564.001C126.179 564.001 126 563.822 126 563.601L126 560.401C126 560.18 125.821 560.001 125.6 560.001L122 560.001 122 556.001 130 556.001 130 564.001ZM121.6 564.001 114 564.001 114 560.401C114 560.18 113.821 560.001 113.6 560.001L110.4 560.001C110.179 560.001 110 559.822 110 559.601L110 556.401C110 556.18 110.179 556.001 110.4 556.001L118 556.001 118 559.601C118 559.822 118.179 560.001 118.4 560.001L122 560.001 122 563.601C122 563.822 121.821 564.001 121.6 564.001ZM105.6 560.001 97.9999 560.001 97.9999 552.001 106 552.001 106 559.601C106 559.822 105.821 560.001 105.6 560.001ZM137.6 556.001 130 556.001 130 552.001 133.6 552.001C133.821 552.001 134 551.822 134 551.601L134 544.001 137.6 544.001C137.821 544.001 138 544.18 138 544.401L138 547.601C138 547.822 138.179 548.001 138.4 548.001L142 548.001 142 552.001 138.4 552.001C138.179 552.001 138 552.18 138 552.401L138 555.601C138 555.822 137.821 556.001 137.6 556.001ZM121.6 556.001 118 556.001 118 552.401C118 552.18 118.179 552.001 118.4 552.001L121.6 552.001C121.821 552.001 122 552.18 122 552.401L122 556.001ZM209.6 552.001 206 552.001 206 548.001 209.6 548.001C209.821 548.001 210 548.18 210 548.401L210 551.601C210 551.822 209.821 552.001 209.6 552.001ZM161.6 552.001 158.4 552.001C158.179 552.001 158 551.822 158 551.601L158 544.401C158 544.18 158.179 544.001 158.4 544.001L162 544.001 162 551.601C162 551.822 161.821 552.001 161.6 552.001ZM129.6 552.001 126.4 552.001C126.179 552.001 126 551.822 126 551.601L126 548.001 129.6 548.001C129.821 548.001 130 548.18 130 548.401L130 552.001ZM113.6 552.001 106 552.001 106 544.401C106 544.18 106.179 544.001 106.4 544.001L109.6 544.001C109.821 544.001 110 544.18 110 544.401L110 547.601C110 547.822 110.179 548.001 110.4 548.001L113.6 548.001C113.821 548.001 114 548.18 114 548.401L114 551.601C114 551.822 113.821 552.001 113.6 552.001ZM97.5999 552.001 94.3999 552.001C94.179 552.001 93.9999 551.822 93.9999 551.601L93.9999 544.401C93.9999 544.18 94.179 544.001 94.3999 544.001L101.6 544.001C101.821 544.001 102 544.18 102 544.401L102 547.601C102 547.822 101.821 548.001 101.6 548.001L98.3999 548.001C98.179 548.001 97.9999 548.18 97.9999 548.401L97.9999 552.001ZM205.6 548.001 198 548.001 198 544.401C198 544.18 198.179 544.001 198.4 544.001L205.6 544.001C205.821 544.001 206 544.18 206 544.401L206 548.001ZM145.6 548.001 142 548.001 142 536.001 145.6 536.001C145.821 536.001 146 536.18 146 536.401L146 548.001ZM125.6 548.001 118.4 548.001C118.179 548.001 118 547.822 118 547.601L118 544.401C118 544.18 118.179 544.001 118.4 544.001L126 544.001 126 548.001ZM133.6 544.001 126 544.001 126 528.401C126 528.18 126.179 528.001 126.4 528.001L130 528.001 130 531.601C130 531.822 130.179 532.001 130.4 532.001L133.6 532.001C133.821 532.001 134 532.18 134 532.401L134 536.001 130.4 536.001C130.179 536.001 130 536.18 130 536.401L130 539.601C130 539.822 130.179 540.001 130.4 540.001L134 540.001 134 544.001ZM209.6 540.001 182.4 540.001C182.179 540.001 182 539.822 182 539.601L182 512.401C182 512.18 182.179 512.001 182.4 512.001L209.6 512.001C209.821 512.001 210 512.18 210 512.401L210 539.601C210 539.822 209.821 540.001 209.6 540.001ZM137.6 540.001 134 540.001 134 536.001 138 536.001 138 539.601C138 539.822 137.821 540.001 137.6 540.001ZM121.6 540.001 94.3999 540.001C94.179 540.001 93.9999 539.822 93.9999 539.601L93.9999 512.401C93.9999 512.18 94.179 512.001 94.3999 512.001L121.6 512.001C121.821 512.001 122 512.18 122 512.401L122 539.601C122 539.822 121.821 540.001 121.6 540.001ZM206 535.601 206 516.401C206 516.18 205.821 516.001 205.6 516.001L186.4 516.001C186.179 516.001 186 516.18 186 516.401L186 535.601C186 535.822 186.179 536.001 186.4 536.001L205.6 536.001C205.821 536.001 206 535.822 206 535.601ZM141.6 536.001 138 536.001 138 532.401C138 532.18 138.179 532.001 138.4 532.001L141.6 532.001C141.821 532.001 142 532.18 142 532.401L142 536.001ZM118 535.601 118 516.401C118 516.18 117.821 516.001 117.6 516.001L98.3999 516.001C98.179 516.001 97.9999 516.18 97.9999 516.401L97.9999 535.601C97.9999 535.822 98.179 536.001 98.3999 536.001L117.6 536.001C117.821 536.001 118 535.822 118 535.601ZM201.6 532.001 190.4 532.001C190.179 532.001 190 531.822 190 531.601L190 520.401C190 520.18 190.179 520.001 190.4 520.001L201.6 520.001C201.821 520.001 202 520.18 202 520.401L202 531.601C202 531.822 201.821 532.001 201.6 532.001ZM149.6 532.001 146.4 532.001C146.179 532.001 146 531.822 146 531.601L146 528.401C146 528.18 146.179 528.001 146.4 528.001L149.6 528.001C149.821 528.001 150 528.18 150 528.401L150 532.001ZM113.6 532.001 102.4 532.001C102.179 532.001 102 531.822 102 531.601L102 520.401C102 520.18 102.179 520.001 102.4 520.001L113.6 520.001C113.821 520.001 114 520.18 114 520.401L114 531.601C114 531.822 113.821 532.001 113.6 532.001ZM141.6 528.001 130 528.001 130 524.401C130 524.18 129.821 524.001 129.6 524.001L126.4 524.001C126.179 524.001 126 523.822 126 523.601L126 516.401C126 516.18 126.179 516.001 126.4 516.001L130 516.001 130 519.601C130 519.822 130.179 520.001 130.4 520.001L137.6 520.001C137.821 520.001 138 519.822 138 519.601L138 516.401C138 516.18 138.179 516.001 138.4 516.001L141.6 516.001C141.821 516.001 142 515.822 142 515.601L142 512.401C142 512.18 142.179 512.001 142.4 512.001L145.6 512.001C145.821 512.001 146 512.18 146 512.401L146 515.601C146 515.822 146.179 516.001 146.4 516.001L149.6 516.001C149.821 516.001 150 515.822 150 515.601L150 512.401C150 512.18 150.179 512.001 150.4 512.001L153.6 512.001C153.821 512.001 154 512.18 154 512.401L154 515.601C154 515.822 154.179 516.001 154.4 516.001L161.6 516.001C161.821 516.001 162 516.18 162 516.401L162 519.601C162 519.822 162.179 520.001 162.4 520.001L165.6 520.001C165.821 520.001 166 520.18 166 520.401L166 524.001 154.4 524.001C154.179 524.001 154 523.822 154 523.601L154 520.401C154 520.18 153.821 520.001 153.6 520.001L146.4 520.001C146.179 520.001 146 520.18 146 520.401L146 523.601C146 523.822 145.821 524.001 145.6 524.001L142.4 524.001C142.179 524.001 142 524.18 142 524.401L142 527.601C142 527.822 141.821 528.001 141.6 528.001ZM177.6 524.001 170 524.001 170 520.401C170 520.18 170.179 520.001 170.4 520.001L177.6 520.001C177.821 520.001 178 520.18 178 520.401L178 523.601C178 523.822 177.821 524.001 177.6 524.001ZM173.6 516.001 166.4 516.001C166.179 516.001 166 515.822 166 515.601L166 512.401C166 512.18 166.179 512.001 166.4 512.001L173.6 512.001C173.821 512.001 174 512.18 174 512.401L174 515.601C174 515.822 173.821 516.001 173.6 516.001ZM133.6 516.001 130 516.001 130 512.401C130 512.18 130.179 512.001 130.4 512.001L133.6 512.001C133.821 512.001 134 512.18 134 512.401L134 515.601C134 515.822 133.821 516.001 133.6 516.001Z"/><path d="M77.9999 496.001 226 496.001 226 644.001 77.9999 644.001Z" fill="#FFFFFF"/><path d="M205.6 628.001 202.4 628.001C202.179 628.001 202 627.822 202 627.601L202 620.001 206 620.001 206 627.601C206 627.822 205.821 628.001 205.6 628.001ZM197.6 628.001 190.4 628.001C190.179 628.001 190 627.822 190 627.601L190 616.401C190 616.18 189.821 616.001 189.6 616.001L182.4 616.001C182.179 616.001 182 615.822 182 615.601L182 612.401C182 612.18 181.821 612.001 181.6 612.001L174.4 612.001C174.179 612.001 174 611.822 174 611.601L174 592.001 177.6 592.001C177.821 592.001 178 591.822 178 591.601L178 588.401C178 588.18 178.179 588.001 178.4 588.001L189.6 588.001C189.821 588.001 190 587.822 190 587.601L190 584.001 194 584.001 194 603.601C194 603.822 194.179 604.001 194.4 604.001L201.6 604.001C201.821 604.001 202 603.822 202 603.601L202 600.401C202 600.18 201.821 600.001 201.6 600.001L198.4 600.001C198.179 600.001 198 599.822 198 599.601L198 592.401C198 592.18 198.179 592.001 198.4 592.001L202 592.001 202 595.601C202 595.822 202.179 596.001 202.4 596.001L209.6 596.001C209.821 596.001 210 596.18 210 596.401L210 599.601C210 599.822 209.821 600.001 209.6 600.001L206.4 600.001C206.179 600.001 206 600.18 206 600.401L206 608.001 194.4 608.001C194.179 608.001 194 608.18 194 608.401L194 611.601C194 611.822 194.179 612.001 194.4 612.001L201.6 612.001C201.821 612.001 202 612.18 202 612.401L202 620.001 194.4 620.001C194.179 620.001 194 620.18 194 620.401L194 623.601C194 623.822 194.179 624.001 194.4 624.001L197.6 624.001C197.821 624.001 198 624.18 198 624.401L198 627.601C198 627.822 197.821 628.001 197.6 628.001ZM181.6 628.001 174.4 628.001C174.179 628.001 174 627.822 174 627.601L174 620.001 181.6 620.001C181.821 620.001 182 620.18 182 620.401L182 627.601C182 627.822 181.821 628.001 181.6 628.001ZM165.6 628.001 162.4 628.001C162.179 628.001 162 627.822 162 627.601L162 620.001 166 620.001 166 627.601C166 627.822 165.821 628.001 165.6 628.001ZM149.6 628.001 142.4 628.001C142.179 628.001 142 627.822 142 627.601L142 624.401C142 624.18 142.179 624.001 142.4 624.001L145.6 624.001C145.821 624.001 146 623.822 146 623.601L146 620.401C146 620.18 146.179 620.001 146.4 620.001L150 620.001 150 627.601C150 627.822 149.821 628.001 149.6 628.001ZM137.6 628.001 126.4 628.001C126.179 628.001 126 627.822 126 627.601L126 620.401C126 620.18 126.179 620.001 126.4 620.001L129.6 620.001C129.821 620.001 130 619.822 130 619.601L130 616.001 134 616.001 134 623.601C134 623.822 134.179 624.001 134.4 624.001L137.6 624.001C137.821 624.001 138 624.18 138 624.401L138 627.601C138 627.822 137.821 628.001 137.6 628.001ZM121.6 628.001 94.3999 628.001C94.179 628.001 93.9999 627.822 93.9999 627.601L93.9999 600.401C93.9999 600.18 94.179 600.001 94.3999 600.001L121.6 600.001C121.821 600.001 122 600.18 122 600.401L122 627.601C122 627.822 121.821 628.001 121.6 628.001ZM118 623.601 118 604.401C118 604.18 117.821 604.001 117.6 604.001L98.3999 604.001C98.179 604.001 97.9999 604.18 97.9999 604.401L97.9999 623.601C97.9999 623.822 98.179 624.001 98.3999 624.001L117.6 624.001C117.821 624.001 118 623.822 118 623.601ZM209.6 620.001 206 620.001 206 616.401C206 616.18 206.179 616.001 206.4 616.001L209.6 616.001C209.821 616.001 210 616.18 210 616.401L210 619.601C210 619.822 209.821 620.001 209.6 620.001ZM173.6 620.001 166 620.001 166 612.401C166 612.18 166.179 612.001 166.4 612.001L169.6 612.001C169.821 612.001 170 612.18 170 612.401L170 615.601C170 615.822 170.179 616.001 170.4 616.001L173.6 616.001C173.821 616.001 174 616.18 174 616.401L174 620.001ZM161.6 620.001 158.4 620.001C158.179 620.001 158 619.822 158 619.601L158 616.401C158 616.18 158.179 616.001 158.4 616.001L161.6 616.001C161.821 616.001 162 616.18 162 616.401L162 620.001ZM153.6 620.001 150 620.001 150 612.401C150 612.18 149.821 612.001 149.6 612.001L146 612.001 146 604.401C146 604.18 145.821 604.001 145.6 604.001L142.4 604.001C142.179 604.001 142 603.822 142 603.601L142 600.401C142 600.18 142.179 600.001 142.4 600.001L145.6 600.001C145.821 600.001 146 599.822 146 599.601L146 592.001 149.6 592.001C149.821 592.001 150 592.18 150 592.401L150 595.601C150 595.822 150.179 596.001 150.4 596.001L153.6 596.001C153.821 596.001 154 595.822 154 595.601L154 588.401C154 588.18 154.179 588.001 154.4 588.001L161.6 588.001C161.821 588.001 162 587.822 162 587.601L162 584.001 165.6 584.001C165.821 584.001 166 584.18 166 584.401L166 587.601C166 587.822 166.179 588.001 166.4 588.001L173.6 588.001C173.821 588.001 174 588.18 174 588.401L174 592.001 162.4 592.001C162.179 592.001 162 592.18 162 592.401L162 595.601C162 595.822 162.179 596.001 162.4 596.001L169.6 596.001C169.821 596.001 170 596.18 170 596.401L170 603.601C170 603.822 169.821 604.001 169.6 604.001L162.4 604.001C162.179 604.001 162 604.18 162 604.401L162 611.601C162 611.822 161.821 612.001 161.6 612.001L154.4 612.001C154.179 612.001 154 612.18 154 612.401L154 619.601C154 619.822 153.821 620.001 153.6 620.001ZM141.6 620.001 138.4 620.001C138.179 620.001 138 619.822 138 619.601L138 616.401C138 616.18 137.821 616.001 137.6 616.001L134 616.001 134 612.001 137.6 612.001C137.821 612.001 138 611.822 138 611.601L138 608.401C138 608.18 138.179 608.001 138.4 608.001L141.6 608.001C141.821 608.001 142 608.18 142 608.401L142 611.601C142 611.822 142.179 612.001 142.4 612.001L146 612.001 146 615.601C146 615.822 145.821 616.001 145.6 616.001L142.4 616.001C142.179 616.001 142 616.18 142 616.401L142 619.601C142 619.822 141.821 620.001 141.6 620.001ZM113.6 620.001 102.4 620.001C102.179 620.001 102 619.822 102 619.601L102 608.401C102 608.18 102.179 608.001 102.4 608.001L113.6 608.001C113.821 608.001 114 608.18 114 608.401L114 619.601C114 619.822 113.821 620.001 113.6 620.001ZM129.6 616.001 126.4 616.001C126.179 616.001 126 615.822 126 615.601L126 612.401C126 612.18 126.179 612.001 126.4 612.001L130 612.001 130 616.001ZM209.6 612.001 206.4 612.001C206.179 612.001 206 611.822 206 611.601L206 608.001 209.6 608.001C209.821 608.001 210 608.18 210 608.401L210 611.601C210 611.822 209.821 612.001 209.6 612.001ZM133.6 612.001 130 612.001 130 608.401C130 608.18 130.179 608.001 130.4 608.001L133.6 608.001C133.821 608.001 134 608.18 134 608.401L134 612.001ZM190 607.601 190 596.401C190 596.18 189.821 596.001 189.6 596.001L178.4 596.001C178.179 596.001 178 596.18 178 596.401L178 607.601C178 607.822 178.179 608.001 178.4 608.001L189.6 608.001C189.821 608.001 190 607.822 190 607.601ZM154 607.601 154 604.001 157.6 604.001C157.821 604.001 158 603.822 158 603.601L158 600.401C158 600.18 157.821 600.001 157.6 600.001L154.4 600.001C154.179 600.001 154 600.18 154 600.401L154 604.001 150.4 604.001C150.179 604.001 150 604.18 150 604.401L150 607.601C150 607.822 150.179 608.001 150.4 608.001L153.6 608.001C153.821 608.001 154 607.822 154 607.601ZM185.6 604.001 182.4 604.001C182.179 604.001 182 603.822 182 603.601L182 600.401C182 600.18 182.179 600.001 182.4 600.001L185.6 600.001C185.821 600.001 186 600.18 186 600.401L186 603.601C186 603.822 185.821 604.001 185.6 604.001ZM137.6 604.001 134.4 604.001C134.179 604.001 134 603.822 134 603.601L134 600.401C134 600.18 134.179 600.001 134.4 600.001L137.6 600.001C137.821 600.001 138 600.18 138 600.401L138 603.601C138 603.822 137.821 604.001 137.6 604.001ZM129.6 604.001 126.4 604.001C126.179 604.001 126 603.822 126 603.601L126 588.401C126 588.18 126.179 588.001 126.4 588.001L130 588.001 130 603.601C130 603.822 129.821 604.001 129.6 604.001ZM141.6 596.001 134.4 596.001C134.179 596.001 134 595.822 134 595.601L134 592.401C134 592.18 134.179 592.001 134.4 592.001L142 592.001 142 595.601C142 595.822 141.821 596.001 141.6 596.001ZM121.6 596.001 114.4 596.001C114.179 596.001 114 595.822 114 595.601L114 588.001 118 588.001 118 591.601C118 591.822 118.179 592.001 118.4 592.001L121.6 592.001C121.821 592.001 122 592.18 122 592.401L122 595.601C122 595.822 121.821 596.001 121.6 596.001ZM109.6 596.001 102.4 596.001C102.179 596.001 102 595.822 102 595.601L102 584.401C102 584.18 102.179 584.001 102.4 584.001L105.6 584.001C105.821 584.001 106 584.18 106 584.401L106 591.601C106 591.822 106.179 592.001 106.4 592.001L109.6 592.001C109.821 592.001 110 592.18 110 592.401L110 595.601C110 595.822 109.821 596.001 109.6 596.001ZM97.5999 596.001 94.3999 596.001C94.179 596.001 93.9999 595.822 93.9999 595.601L93.9999 592.401C93.9999 592.18 94.179 592.001 94.3999 592.001L97.5999 592.001C97.8208 592.001 97.9999 592.18 97.9999 592.401L97.9999 595.601C97.9999 595.822 97.8208 596.001 97.5999 596.001ZM209.6 592.001 202 592.001 202 584.401C202 584.18 202.179 584.001 202.4 584.001L205.6 584.001C205.821 584.001 206 583.822 206 583.601L206 580.001 209.6 580.001C209.821 580.001 210 580.18 210 580.401L210 591.601C210 591.822 209.821 592.001 209.6 592.001ZM145.6 592.001 142 592.001 142 584.401C142 584.18 141.821 584.001 141.6 584.001L134 584.001 134 580.401C134 580.18 134.179 580.001 134.4 580.001L137.6 580.001C137.821 580.001 138 579.822 138 579.601L138 576.401C138 576.18 138.179 576.001 138.4 576.001L141.6 576.001C141.821 576.001 142 575.822 142 575.601L142 572.001 145.6 572.001C145.821 572.001 146 571.822 146 571.601L146 568.001 150 568.001 150 575.601C150 575.822 149.821 576.001 149.6 576.001L146.4 576.001C146.179 576.001 146 576.18 146 576.401L146 592.001ZM133.6 588.001 130 588.001 130 584.401C130 584.18 130.179 584.001 130.4 584.001L134 584.001 134 587.601C134 587.822 133.821 588.001 133.6 588.001ZM121.6 588.001 118 588.001 118 584.001 121.6 584.001C121.821 584.001 122 584.18 122 584.401L122 587.601C122 587.822 121.821 588.001 121.6 588.001ZM113.6 588.001 110.4 588.001C110.179 588.001 110 587.822 110 587.601L110 580.401C110 580.18 109.821 580.001 109.6 580.001L106.4 580.001C106.179 580.001 106 579.822 106 579.601L106 572.401C106 572.18 105.821 572.001 105.6 572.001L97.9999 572.001 97.9999 568.001 101.6 568.001C101.821 568.001 102 567.822 102 567.601L102 564.401C102 564.18 102.179 564.001 102.4 564.001L105.6 564.001C105.821 564.001 106 564.18 106 564.401L106 567.601C106 567.822 106.179 568.001 106.4 568.001L109.6 568.001C109.821 568.001 110 567.822 110 567.601L110 564.401C110 564.18 110.179 564.001 110.4 564.001L114 564.001 114 567.601C114 567.822 114.179 568.001 114.4 568.001L125.6 568.001C125.821 568.001 126 568.18 126 568.401L126 572.001 114.4 572.001C114.179 572.001 114 572.18 114 572.401L114 575.601C114 575.822 114.179 576.001 114.4 576.001L126 576.001 126 579.601C126 579.822 125.821 580.001 125.6 580.001L118.4 580.001C118.179 580.001 118 580.18 118 580.401L118 584.001 114.4 584.001C114.179 584.001 114 584.18 114 584.401L114 588.001ZM97.5999 588.001 94.3999 588.001C94.179 588.001 93.9999 587.822 93.9999 587.601L93.9999 584.401C93.9999 584.18 94.179 584.001 94.3999 584.001L97.5999 584.001C97.8208 584.001 97.9999 584.18 97.9999 584.401L97.9999 587.601C97.9999 587.822 97.8208 588.001 97.5999 588.001ZM197.6 584.001 194 584.001 194 580.401C194 580.18 194.179 580.001 194.4 580.001L197.6 580.001C197.821 580.001 198 580.18 198 580.401L198 583.601C198 583.822 197.821 584.001 197.6 584.001ZM189.6 584.001 178.4 584.001C178.179 584.001 178 583.822 178 583.601L178 580.401C178 580.18 177.821 580.001 177.6 580.001L170.4 580.001C170.179 580.001 170 579.822 170 579.601L170 576.401C170 576.18 169.821 576.001 169.6 576.001L162 576.001 162 572.001 174 572.001 174 575.601C174 575.822 174.179 576.001 174.4 576.001L182 576.001 182 579.601C182 579.822 182.179 580.001 182.4 580.001L189.6 580.001C189.821 580.001 190 580.18 190 580.401L190 584.001ZM161.6 584.001 150.4 584.001C150.179 584.001 150 583.822 150 583.601L150 580.401C150 580.18 150.179 580.001 150.4 580.001L157.6 580.001C157.821 580.001 158 579.822 158 579.601L158 576.001 162 576.001 162 584.001ZM205.6 580.001 202.4 580.001C202.179 580.001 202 579.822 202 579.601L202 572.401C202 572.18 201.821 572.001 201.6 572.001L198.4 572.001C198.179 572.001 198 572.18 198 572.401L198 575.601C198 575.822 197.821 576.001 197.6 576.001L194.4 576.001C194.179 576.001 194 575.822 194 575.601L194 572.401C194 572.18 193.821 572.001 193.6 572.001L190 572.001 190 568.401C190 568.18 190.179 568.001 190.4 568.001L209.6 568.001C209.821 568.001 210 568.18 210 568.401L210 571.601C210 571.822 209.821 572.001 209.6 572.001L206.4 572.001C206.179 572.001 206 572.18 206 572.401L206 580.001ZM189.6 576.001 182 576.001 182 572.401C182 572.18 181.821 572.001 181.6 572.001L174 572.001 174 568.401C174 568.18 173.821 568.001 173.6 568.001L170.4 568.001C170.179 568.001 170 567.822 170 567.601L170 564.001 178 564.001 178 567.601C178 567.822 178.179 568.001 178.4 568.001L185.6 568.001C185.821 568.001 186 568.18 186 568.401L186 571.601C186 571.822 186.179 572.001 186.4 572.001L190 572.001 190 575.601C190 575.822 189.821 576.001 189.6 576.001ZM157.6 576.001 154.4 576.001C154.179 576.001 154 575.822 154 575.601L154 572.401C154 572.18 154.179 572.001 154.4 572.001L158 572.001 158 576.001ZM133.6 576.001 126 576.001 126 572.001 129.6 572.001C129.821 572.001 130 571.822 130 571.601L130 564.001 137.6 564.001C137.821 564.001 138 563.822 138 563.601L138 560.401C138 560.18 138.179 560.001 138.4 560.001L141.6 560.001C141.821 560.001 142 559.822 142 559.601L142 552.001 145.6 552.001C145.821 552.001 146 551.822 146 551.601L146 548.001 149.6 548.001C149.821 548.001 150 547.822 150 547.601L150 532.001 153.6 532.001C153.821 532.001 154 531.822 154 531.601L154 528.401C154 528.18 154.179 528.001 154.4 528.001L165.6 528.001C165.821 528.001 166 527.822 166 527.601L166 524.001 170 524.001 170 531.601C170 531.822 170.179 532.001 170.4 532.001L173.6 532.001C173.821 532.001 174 531.822 174 531.601L174 528.401C174 528.18 174.179 528.001 174.4 528.001L177.6 528.001C177.821 528.001 178 528.18 178 528.401L178 539.601C178 539.822 177.821 540.001 177.6 540.001L174.4 540.001C174.179 540.001 174 539.822 174 539.601L174 536.401C174 536.18 173.821 536.001 173.6 536.001L170.4 536.001C170.179 536.001 170 536.18 170 536.401L170 543.601C170 543.822 169.821 544.001 169.6 544.001L162 544.001 162 540.001 165.6 540.001C165.821 540.001 166 539.822 166 539.601L166 536.401C166 536.18 165.821 536.001 165.6 536.001L162.4 536.001C162.179 536.001 162 536.18 162 536.401L162 540.001 158.4 540.001C158.179 540.001 158 539.822 158 539.601L158 536.401C158 536.18 157.821 536.001 157.6 536.001L154.4 536.001C154.179 536.001 154 536.18 154 536.401L154 551.601C154 551.822 153.821 552.001 153.6 552.001L150.4 552.001C150.179 552.001 150 552.18 150 552.401L150 555.601C150 555.822 150.179 556.001 150.4 556.001L161.6 556.001C161.821 556.001 162 556.18 162 556.401L162 559.601C162 559.822 162.179 560.001 162.4 560.001L165.6 560.001C165.821 560.001 166 559.822 166 559.601L166 556.401C166 556.18 166.179 556.001 166.4 556.001L169.6 556.001C169.821 556.001 170 555.822 170 555.601L170 552.401C170 552.18 170.179 552.001 170.4 552.001L173.6 552.001C173.821 552.001 174 551.822 174 551.601L174 544.401C174 544.18 174.179 544.001 174.4 544.001L177.6 544.001C177.821 544.001 178 544.18 178 544.401L178 547.601C178 547.822 178.179 548.001 178.4 548.001L181.6 548.001C181.821 548.001 182 547.822 182 547.601L182 544.401C182 544.18 182.179 544.001 182.4 544.001L193.6 544.001C193.821 544.001 194 544.18 194 544.401L194 548.001 190.4 548.001C190.179 548.001 190 548.18 190 548.401L190 552.001 186.4 552.001C186.179 552.001 186 552.18 186 552.401L186 555.601C186 555.822 186.179 556.001 186.4 556.001L190 556.001 190 563.601C190 563.822 189.821 564.001 189.6 564.001L178 564.001 178 560.401C178 560.18 177.821 560.001 177.6 560.001L170.4 560.001C170.179 560.001 170 560.18 170 560.401L170 564.001 158.4 564.001C158.179 564.001 158 563.822 158 563.601L158 560.401C158 560.18 157.821 560.001 157.6 560.001L150.4 560.001C150.179 560.001 150 560.18 150 560.401L150 564.001 146.4 564.001C146.179 564.001 146 564.18 146 564.401L146 568.001 142.4 568.001C142.179 568.001 142 568.18 142 568.401L142 572.001 138.4 572.001C138.179 572.001 138 571.822 138 571.601L138 568.401C138 568.18 137.821 568.001 137.6 568.001L134.4 568.001C134.179 568.001 134 568.18 134 568.401L134 575.601C134 575.822 133.821 576.001 133.6 576.001ZM97.5999 576.001 94.3999 576.001C94.179 576.001 93.9999 575.822 93.9999 575.601L93.9999 572.401C93.9999 572.18 94.179 572.001 94.3999 572.001L97.9999 572.001 97.9999 575.601C97.9999 575.822 97.8208 576.001 97.5999 576.001ZM161.6 572.001 158 572.001 158 568.401C158 568.18 158.179 568.001 158.4 568.001L161.6 568.001C161.821 568.001 162 568.18 162 568.401L162 572.001ZM153.6 568.001 150 568.001 150 564.001 153.6 564.001C153.821 564.001 154 564.18 154 564.401L154 567.601C154 567.822 153.821 568.001 153.6 568.001ZM97.5999 568.001 94.3999 568.001C94.179 568.001 93.9999 567.822 93.9999 567.601L93.9999 560.401C93.9999 560.18 94.179 560.001 94.3999 560.001L97.9999 560.001 97.9999 568.001ZM209.6 564.001 202.4 564.001C202.179 564.001 202 563.822 202 563.601L202 560.401C202 560.18 201.821 560.001 201.6 560.001L198 560.001 198 556.401C198 556.18 197.821 556.001 197.6 556.001L190 556.001 190 552.001 193.6 552.001C193.821 552.001 194 551.822 194 551.601L194 548.001 198 548.001 198 551.601C198 551.822 198.179 552.001 198.4 552.001L206 552.001 206 559.601C206 559.822 206.179 560.001 206.4 560.001L209.6 560.001C209.821 560.001 210 560.18 210 560.401L210 563.601C210 563.822 209.821 564.001 209.6 564.001ZM197.6 564.001 194.4 564.001C194.179 564.001 194 563.822 194 563.601L194 560.401C194 560.18 194.179 560.001 194.4 560.001L198 560.001 198 563.601C198 563.822 197.821 564.001 197.6 564.001ZM129.6 564.001 126.4 564.001C126.179 564.001 126 563.822 126 563.601L126 560.401C126 560.18 125.821 560.001 125.6 560.001L122 560.001 122 556.001 130 556.001 130 564.001ZM121.6 564.001 114 564.001 114 560.401C114 560.18 113.821 560.001 113.6 560.001L110.4 560.001C110.179 560.001 110 559.822 110 559.601L110 556.401C110 556.18 110.179 556.001 110.4 556.001L118 556.001 118 559.601C118 559.822 118.179 560.001 118.4 560.001L122 560.001 122 563.601C122 563.822 121.821 564.001 121.6 564.001ZM105.6 560.001 97.9999 560.001 97.9999 552.001 106 552.001 106 559.601C106 559.822 105.821 560.001 105.6 560.001ZM137.6 556.001 130 556.001 130 552.001 133.6 552.001C133.821 552.001 134 551.822 134 551.601L134 544.001 137.6 544.001C137.821 544.001 138 544.18 138 544.401L138 547.601C138 547.822 138.179 548.001 138.4 548.001L142 548.001 142 552.001 138.4 552.001C138.179 552.001 138 552.18 138 552.401L138 555.601C138 555.822 137.821 556.001 137.6 556.001ZM121.6 556.001 118 556.001 118 552.401C118 552.18 118.179 552.001 118.4 552.001L121.6 552.001C121.821 552.001 122 552.18 122 552.401L122 556.001ZM209.6 552.001 206 552.001 206 548.001 209.6 548.001C209.821 548.001 210 548.18 210 548.401L210 551.601C210 551.822 209.821 552.001 209.6 552.001ZM161.6 552.001 158.4 552.001C158.179 552.001 158 551.822 158 551.601L158 544.401C158 544.18 158.179 544.001 158.4 544.001L162 544.001 162 551.601C162 551.822 161.821 552.001 161.6 552.001ZM129.6 552.001 126.4 552.001C126.179 552.001 126 551.822 126 551.601L126 548.001 129.6 548.001C129.821 548.001 130 548.18 130 548.401L130 552.001ZM113.6 552.001 106 552.001 106 544.401C106 544.18 106.179 544.001 106.4 544.001L109.6 544.001C109.821 544.001 110 544.18 110 544.401L110 547.601C110 547.822 110.179 548.001 110.4 548.001L113.6 548.001C113.821 548.001 114 548.18 114 548.401L114 551.601C114 551.822 113.821 552.001 113.6 552.001ZM97.5999 552.001 94.3999 552.001C94.179 552.001 93.9999 551.822 93.9999 551.601L93.9999 544.401C93.9999 544.18 94.179 544.001 94.3999 544.001L101.6 544.001C101.821 544.001 102 544.18 102 544.401L102 547.601C102 547.822 101.821 548.001 101.6 548.001L98.3999 548.001C98.179 548.001 97.9999 548.18 97.9999 548.401L97.9999 552.001ZM205.6 548.001 198 548.001 198 544.401C198 544.18 198.179 544.001 198.4 544.001L205.6 544.001C205.821 544.001 206 544.18 206 544.401L206 548.001ZM145.6 548.001 142 548.001 142 536.001 145.6 536.001C145.821 536.001 146 536.18 146 536.401L146 548.001ZM125.6 548.001 118.4 548.001C118.179 548.001 118 547.822 118 547.601L118 544.401C118 544.18 118.179 544.001 118.4 544.001L126 544.001 126 548.001ZM133.6 544.001 126 544.001 126 528.401C126 528.18 126.179 528.001 126.4 528.001L130 528.001 130 531.601C130 531.822 130.179 532.001 130.4 532.001L133.6 532.001C133.821 532.001 134 532.18 134 532.401L134 536.001 130.4 536.001C130.179 536.001 130 536.18 130 536.401L130 539.601C130 539.822 130.179 540.001 130.4 540.001L134 540.001 134 544.001ZM209.6 540.001 182.4 540.001C182.179 540.001 182 539.822 182 539.601L182 512.401C182 512.18 182.179 512.001 182.4 512.001L209.6 512.001C209.821 512.001 210 512.18 210 512.401L210 539.601C210 539.822 209.821 540.001 209.6 540.001ZM137.6 540.001 134 540.001 134 536.001 138 536.001 138 539.601C138 539.822 137.821 540.001 137.6 540.001ZM121.6 540.001 94.3999 540.001C94.179 540.001 93.9999 539.822 93.9999 539.601L93.9999 512.401C93.9999 512.18 94.179 512.001 94.3999 512.001L121.6 512.001C121.821 512.001 122 512.18 122 512.401L122 539.601C122 539.822 121.821 540.001 121.6 540.001ZM206 535.601 206 516.401C206 516.18 205.821 516.001 205.6 516.001L186.4 516.001C186.179 516.001 186 516.18 186 516.401L186 535.601C186 535.822 186.179 536.001 186.4 536.001L205.6 536.001C205.821 536.001 206 535.822 206 535.601ZM141.6 536.001 138 536.001 138 532.401C138 532.18 138.179 532.001 138.4 532.001L141.6 532.001C141.821 532.001 142 532.18 142 532.401L142 536.001ZM118 535.601 118 516.401C118 516.18 117.821 516.001 117.6 516.001L98.3999 516.001C98.179 516.001 97.9999 516.18 97.9999 516.401L97.9999 535.601C97.9999 535.822 98.179 536.001 98.3999 536.001L117.6 536.001C117.821 536.001 118 535.822 118 535.601ZM201.6 532.001 190.4 532.001C190.179 532.001 190 531.822 190 531.601L190 520.401C190 520.18 190.179 520.001 190.4 520.001L201.6 520.001C201.821 520.001 202 520.18 202 520.401L202 531.601C202 531.822 201.821 532.001 201.6 532.001ZM149.6 532.001 146.4 532.001C146.179 532.001 146 531.822 146 531.601L146 528.401C146 528.18 146.179 528.001 146.4 528.001L149.6 528.001C149.821 528.001 150 528.18 150 528.401L150 532.001ZM113.6 532.001 102.4 532.001C102.179 532.001 102 531.822 102 531.601L102 520.401C102 520.18 102.179 520.001 102.4 520.001L113.6 520.001C113.821 520.001 114 520.18 114 520.401L114 531.601C114 531.822 113.821 532.001 113.6 532.001ZM141.6 528.001 130 528.001 130 524.401C130 524.18 129.821 524.001 129.6 524.001L126.4 524.001C126.179 524.001 126 523.822 126 523.601L126 516.401C126 516.18 126.179 516.001 126.4 516.001L130 516.001 130 519.601C130 519.822 130.179 520.001 130.4 520.001L137.6 520.001C137.821 520.001 138 519.822 138 519.601L138 516.401C138 516.18 138.179 516.001 138.4 516.001L141.6 516.001C141.821 516.001 142 515.822 142 515.601L142 512.401C142 512.18 142.179 512.001 142.4 512.001L145.6 512.001C145.821 512.001 146 512.18 146 512.401L146 515.601C146 515.822 146.179 516.001 146.4 516.001L149.6 516.001C149.821 516.001 150 515.822 150 515.601L150 512.401C150 512.18 150.179 512.001 150.4 512.001L153.6 512.001C153.821 512.001 154 512.18 154 512.401L154 515.601C154 515.822 154.179 516.001 154.4 516.001L161.6 516.001C161.821 516.001 162 516.18 162 516.401L162 519.601C162 519.822 162.179 520.001 162.4 520.001L165.6 520.001C165.821 520.001 166 520.18 166 520.401L166 524.001 154.4 524.001C154.179 524.001 154 523.822 154 523.601L154 520.401C154 520.18 153.821 520.001 153.6 520.001L146.4 520.001C146.179 520.001 146 520.18 146 520.401L146 523.601C146 523.822 145.821 524.001 145.6 524.001L142.4 524.001C142.179 524.001 142 524.18 142 524.401L142 527.601C142 527.822 141.821 528.001 141.6 528.001ZM177.6 524.001 170 524.001 170 520.401C170 520.18 170.179 520.001 170.4 520.001L177.6 520.001C177.821 520.001 178 520.18 178 520.401L178 523.601C178 523.822 177.821 524.001 177.6 524.001ZM173.6 516.001 166.4 516.001C166.179 516.001 166 515.822 166 515.601L166 512.401C166 512.18 166.179 512.001 166.4 512.001L173.6 512.001C173.821 512.001 174 512.18 174 512.401L174 515.601C174 515.822 173.821 516.001 173.6 516.001ZM133.6 516.001 130 516.001 130 512.401C130 512.18 130.179 512.001 130.4 512.001L133.6 512.001C133.821 512.001 134 512.18 134 512.401L134 515.601C134 515.822 133.821 516.001 133.6 516.001Z"/></g></svg>